<svg xmlns:xlink="http://www.w3.org/1999/xlink" width="24" height="24" viewBox="0 0 24 24" fill="none" xmlns="http://www.w3.org/2000/svg"><path d="M13.6667 11.1V16.5M10.3333 11.1V16.5M4.5 6.6H15.3333M15.3333 6.6H19.5M15.3333 6.6V4.8C15.3333 4.32261 15.1577 3.86477 14.8452 3.52721C14.5326 3.18964 14.1087 3 13.6667 3H10.3333C9.89131 3 9.46738 3.18964 9.15482 3.52721C9.05093 3.63942 8.96216 3.76491 8.88995 3.9M17.8333 9.3V19.2C17.8333 19.6774 17.6577 20.1352 17.3452 20.4728C17.0326 20.8104 16.6087 21 16.1667 21H7.83333C7.39131 21 6.96738 20.8104 6.65482 20.4728C6.34226 20.1352 6.16667 19.6774 6.16667 19.2V9.3" stroke="#888888" stroke-width="2px" stroke-linecap="round" stroke-linejoin="round" fill="none"></path></svg>