<svg xmlns:xlink="http://www.w3.org/1999/xlink" width="20" height="20" viewBox="0 0 20 20" fill="none" xmlns="http://www.w3.org/2000/svg"><path d="M15.8743 7.25247C17.6009 7.25247 19.0005 5.85281 19.0005 4.12623C19.0005 2.39966 17.6009 1 15.8743 1C14.1477 1 12.748 2.39966 12.748 4.12623C12.748 5.85281 14.1477 7.25247 15.8743 7.25247Z" stroke="#9CA3AF" stroke-width="1.5px" stroke-miterlimit="10" stroke-linejoin="round" fill="none"></path><path d="M15.8743 18.878C17.6009 18.878 19.0005 17.4783 19.0005 15.7517C19.0005 14.0252 17.6009 12.6255 15.8743 12.6255C14.1477 12.6255 12.748 14.0252 12.748 15.7517C12.748 17.4783 14.1477 18.878 15.8743 18.878Z" stroke="#9CA3AF" stroke-width="1.5px" stroke-miterlimit="10" stroke-linejoin="round" fill="none"></path><path d="M4.12623 13.0647C5.85281 13.0647 7.25247 11.6651 7.25247 9.93849C7.25247 8.21192 5.85281 6.81226 4.12623 6.81226C2.39966 6.81226 1 8.21192 1 9.93849C1 11.6651 2.39966 13.0647 4.12623 13.0647Z" stroke="#9CA3AF" stroke-width="1.5px" stroke-miterlimit="10" stroke-linejoin="round" fill="none"></path><path d="M6.91699 8.53236L13.0388 5.44531" stroke="#9CA3AF" stroke-width="1.5px" stroke-miterlimit="10" stroke-linejoin="round" fill="none"></path><path d="M6.91699 11.5236L13.0388 14.6106" stroke="#9CA3AF" stroke-width="1.5px" stroke-miterlimit="10" stroke-linejoin="round" fill="none"></path></svg>