<svg xmlns:xlink="http://www.w3.org/1999/xlink" width="16" height="16" viewBox="0 0 16 16" fill="currentColor" xmlns="http://www.w3.org/2000/svg"><path d="M1.55664 6.89127C1.34781 6.69815 1.46125 6.34902 1.74371 6.31553L5.74609 5.84099C5.86122 5.82734 5.96121 5.75481 6.00977 5.64954L7.69792 1.98963C7.81705 1.73134 8.18425 1.73131 8.30339 1.9896L9.99154 5.64959C10.0401 5.75486 10.1394 5.82735 10.2546 5.841L14.2572 6.31553C14.5396 6.34902 14.653 6.69817 14.4442 6.89129L11.4853 9.62778C11.4002 9.70649 11.3622 9.82381 11.3848 9.93752L12.1701 13.8907C12.2255 14.1697 11.9286 14.3855 11.6804 14.2465L8.16352 12.2779C8.06236 12.2213 7.93914 12.2212 7.83798 12.2778L4.32072 14.2466C4.07252 14.3855 3.77529 14.1697 3.83073 13.8908L4.61625 9.93747C4.63884 9.82377 4.60089 9.70653 4.51578 9.62782L1.55664 6.89127Z" stroke="#CECECE" stroke-width="1.5px" stroke-linecap="round" stroke-linejoin="round" fill="#CECECE"></path></svg>