<svg xmlns:xlink="http://www.w3.org/1999/xlink" width="19" height="19" viewBox="0 0 19 19" fill="none" xmlns="http://www.w3.org/2000/svg"><path d="M9.72908 16.5433L9.99537 17.2445L9.99538 17.2445L9.72908 16.5433ZM9.26961 16.5433L9.00332 17.2445L9.00332 17.2445L9.26961 16.5433ZM3.95768 3.125H15.041V1.625H3.95768V3.125ZM15.0827 3.16667V8.04718H16.5827V3.16667H15.0827ZM3.91602 8.04718V3.16667H2.41602V8.04718H3.91602ZM15.0827 8.04718C15.0827 13.3751 10.5633 15.4242 9.46279 15.8422L9.99538 17.2445C11.168 16.7991 16.5827 14.4067 16.5827 8.04718H15.0827ZM2.41602 8.04718C2.41602 14.4067 7.83075 16.7991 9.00332 17.2445L9.53591 15.8422C8.43536 15.4242 3.91602 13.3751 3.91602 8.04718H2.41602ZM9.46279 15.8422C9.46994 15.8395 9.48282 15.8362 9.49935 15.8362C9.51588 15.8362 9.52875 15.8395 9.5359 15.8422L9.00332 17.2445C9.32547 17.3668 9.67323 17.3668 9.99537 17.2445L9.46279 15.8422ZM15.041 3.125C15.064 3.125 15.0827 3.14365 15.0827 3.16667H16.5827C16.5827 2.31523 15.8925 1.625 15.041 1.625V3.125ZM3.95768 1.625C3.10624 1.625 2.41602 2.31523 2.41602 3.16667H3.91602C3.91602 3.14365 3.93467 3.125 3.95768 3.125V1.625Z" fill="#E10A0A"></path><path d="M12.4053 7.65533C12.6982 7.36244 12.6982 6.88756 12.4053 6.59467C12.1124 6.30178 11.6376 6.30178 11.3447 6.59467L12.4053 7.65533ZM8.70833 10.2917L8.178 10.822C8.31866 10.9626 8.50942 11.0417 8.70833 11.0417C8.90725 11.0417 9.09801 10.9626 9.23866 10.822L8.70833 10.2917ZM7.65533 8.178C7.36244 7.88511 6.88756 7.88511 6.59467 8.178C6.30178 8.4709 6.30178 8.94577 6.59467 9.23866L7.65533 8.178ZM11.3447 6.59467L8.178 9.76134L9.23866 10.822L12.4053 7.65533L11.3447 6.59467ZM9.23866 9.76134L7.65533 8.178L6.59467 9.23866L8.178 10.822L9.23866 9.76134Z" fill="#E10A0A"></path></svg>