<svg xmlns:xlink="http://www.w3.org/1999/xlink" width="24" height="24" viewBox="0 0 24 24" fill="none" xmlns="http://www.w3.org/2000/svg"><path d="M11.6241 24C11.2237 24 10.8215 23.871 10.4872 23.6129L8.35666 21.9665L5.64757 22.0574C4.79536 22.0828 4.04233 21.5431 3.80723 20.7344L3.06155 18.163L0.815303 16.6601C0.11186 16.1894 -0.178331 15.3099 0.111862 14.5194L1.0357 12.0043L0.111862 9.48197C-0.178331 8.69147 0.110023 7.81192 0.815303 7.34125L3.05787 5.84565L3.80723 3.26878C4.04049 2.46011 4.79903 1.91675 5.64757 1.94582L8.35115 2.03851L10.489 0.388438C11.1594 -0.129479 12.0943 -0.129479 12.7628 0.388438L14.8933 2.03487L17.6024 1.94401C18.4565 1.91493 19.2077 2.45829 19.4428 3.26697L20.1885 5.83838L22.4347 7.34125C23.1381 7.81192 23.4283 8.69147 23.1381 9.48197L22.2143 11.997L23.1381 14.5194C23.4283 15.3099 23.14 16.1894 22.4347 16.6601L20.1921 18.1557L19.4409 20.7326C19.2058 21.5413 18.4491 22.081 17.6006 22.0555L14.8989 21.9629L12.761 23.6129C12.4267 23.8692 12.0245 24 11.6241 24ZM8.34931 20.1438C8.76072 20.1438 9.16111 20.2801 9.4862 20.5309L11.6167 22.1773L13.7601 20.5309C14.1017 20.2674 14.5315 20.1293 14.9613 20.1438L17.663 20.2365L18.4197 17.6578C18.5391 17.2453 18.8036 16.8873 19.1618 16.6474L21.4043 15.1518L20.4842 12.6258C20.3354 12.2224 20.3354 11.779 20.4842 11.3755L21.408 8.86229L19.1618 7.35397C18.8018 7.11409 18.5391 6.75427 18.4197 6.34176L17.6741 3.77035L14.9613 3.85576C14.526 3.8703 14.1017 3.734 13.7601 3.46868L11.6296 1.82225C11.6259 1.81862 11.6204 1.81862 11.6167 1.82225L9.4862 3.46868C9.14458 3.73218 8.71664 3.8703 8.28502 3.85576L5.58329 3.76308L4.82658 6.34176C4.7072 6.75427 4.44272 7.11409 4.08457 7.35397L1.842 8.84956L2.76217 11.3755C2.91094 11.779 2.91094 12.2224 2.76217 12.6258L1.83833 15.1409L4.08457 16.6492C4.44455 16.8891 4.7072 17.2489 4.82658 17.6596L5.57227 20.231L8.28502 20.1456C8.30523 20.1456 8.32727 20.1438 8.34931 20.1438Z" fill="#E10A0A"></path><path d="M7.64667 16.8062C7.44191 16.8062 7.23716 16.7279 7.08039 16.5727C6.76845 16.2608 6.76845 15.7537 7.08039 15.4417L15.0372 7.48493C15.3491 7.17299 15.8562 7.17299 16.1682 7.48493C16.4801 7.79687 16.4801 8.30396 16.1682 8.6159L8.21136 16.5727C8.05619 16.7295 7.85143 16.8062 7.64667 16.8062Z" fill="#E10A0A"></path><path d="M9.25283 11.1814C7.94429 11.1814 6.87891 10.116 6.87891 8.80751C6.87891 7.49898 7.94429 6.43359 9.25283 6.43359C10.5614 6.43359 11.6267 7.49898 11.6267 8.80751C11.6267 10.116 10.5614 11.1814 9.25283 11.1814ZM9.25283 8.03487C8.82571 8.03487 8.47858 8.382 8.47858 8.80911C8.47858 9.23623 8.82571 9.58336 9.25283 9.58336C9.67994 9.58336 10.0271 9.23623 10.0271 8.80911C10.0271 8.382 9.67994 8.03487 9.25283 8.03487Z" fill="#E10A0A"></path><path d="M14.0087 17.5645C12.7001 17.5645 11.6348 16.4991 11.6348 15.1906C11.6348 13.882 12.7001 12.8167 14.0087 12.8167C15.3172 12.8167 16.3826 13.882 16.3826 15.1906C16.3826 16.4991 15.3172 17.5645 14.0087 17.5645ZM14.0087 14.4179C13.5816 14.4179 13.2344 14.7651 13.2344 15.1922C13.2344 15.6193 13.5816 15.9664 14.0087 15.9664C14.4358 15.9664 14.7829 15.6193 14.7829 15.1922C14.7829 14.7651 14.4342 14.4179 14.0087 14.4179Z" fill="#E10A0A"></path></svg>