<svg xmlns:xlink="http://www.w3.org/1999/xlink" width="17" height="16" viewBox="0 0 17 16" fill="none" xmlns="http://www.w3.org/2000/svg"><path fill-rule="evenodd" clip-rule="evenodd" d="M2.01591 0C1.04311 0 0.443359 0.878062 0.443359 1.70964V12.2657C0.443359 12.5669 0.623565 12.8389 0.900943 12.9563C1.17832 13.0737 1.49905 13.0139 1.71534 12.8042L4.45712 10.1468C4.46255 10.1415 4.46677 10.1384 4.46942 10.1367H4.55664V11.4427C4.55664 12.3112 5.26069 13.0152 6.12919 13.0152H12.7323C12.7493 13.0152 12.7657 13.0212 12.7787 13.032L15.5205 15.3098C15.7442 15.4956 16.0551 15.5354 16.3184 15.4118C16.5816 15.2883 16.7498 15.0237 16.7498 14.7329V5.68485C16.7498 4.81636 16.0457 4.1123 15.1772 4.1123H12.6365V1.70964C12.6365 0.878062 12.0367 0 11.0639 0H2.01591ZM12.6365 5.6123V8.42711C12.6365 9.25869 12.0367 10.1367 11.0639 10.1367H6.05664V11.4427C6.05664 11.4827 6.08912 11.5152 6.12919 11.5152H12.7323C13.0994 11.5152 13.4549 11.6436 13.7372 11.8782L15.2498 13.1347V5.68485C15.2498 5.64479 15.2173 5.6123 15.1772 5.6123H12.6365ZM5.33237 8.63675H11.0558C11.0599 8.63406 11.0668 8.62847 11.0761 8.61758C11.104 8.58508 11.1365 8.52007 11.1365 8.42711V1.70964C11.1365 1.61667 11.104 1.55167 11.0761 1.51917C11.0668 1.50828 11.0599 1.50268 11.0558 1.5H2.02399C2.01992 1.50268 2.01305 1.50828 2.00372 1.51917C1.97586 1.55167 1.94336 1.61667 1.94336 1.70964V10.4943L3.41317 9.06969C3.68979 8.80157 4.05915 8.63675 4.46077 8.63675H5.28091C5.28945 8.63646 5.29803 8.63631 5.30664 8.63631C5.31525 8.63631 5.32383 8.63646 5.33237 8.63675ZM2.02831 1.49783C2.02833 1.49794 2.02752 1.4984 2.02583 1.49887C2.02745 1.49795 2.0283 1.49772 2.02831 1.49783ZM11.0515 1.49783C11.0515 1.49772 11.0524 1.49795 11.054 1.49887C11.0523 1.4984 11.0515 1.49794 11.0515 1.49783ZM11.0515 8.63892C11.0515 8.63881 11.0523 8.63835 11.054 8.63788C11.0524 8.63878 11.0516 8.63902 11.0515 8.63892ZM6.98913 2.39453C7.30751 2.39472 7.5883 2.45935 7.83147 2.58843C8.07483 2.71769 8.26285 2.89333 8.39556 3.11534C8.52602 3.32962 8.59534 3.58192 8.59462 3.83987C8.59847 4.02745 8.55941 4.21309 8.48102 4.37969C8.41016 4.52783 8.31922 4.66324 8.21135 4.78126C8.10713 4.8935 7.92015 5.08243 7.65039 5.34804C7.58734 5.41007 7.52749 5.47596 7.47114 5.54538C7.43215 5.59268 7.39847 5.64497 7.37083 5.70113C7.34906 5.74615 7.3316 5.79354 7.31872 5.84253C7.30673 5.88986 7.28849 5.97218 7.26452 6.09064C7.22336 6.34172 7.09308 6.46725 6.8737 6.46725C6.82068 6.46875 6.76792 6.45862 6.71849 6.43745C6.66906 6.41627 6.62395 6.38448 6.5858 6.34392C6.50798 6.26188 6.46907 6.13998 6.46907 5.97821C6.45897 5.63878 6.57139 5.30876 6.78173 5.06034C6.9026 4.91935 7.03001 4.78532 7.16343 4.65878C7.30378 4.52359 7.40522 4.42157 7.46775 4.35273C7.52983 4.28471 7.58298 4.20748 7.62564 4.12326C7.66835 4.03914 7.69052 3.94427 7.69 3.84791C7.69126 3.75567 7.6744 3.66421 7.64059 3.57981C7.60677 3.4954 7.55679 3.42003 7.49407 3.35886C7.36344 3.22615 7.19513 3.1598 6.98913 3.1598C6.74769 3.15961 6.56999 3.22653 6.45605 3.36058C6.3421 3.49463 6.24561 3.69197 6.16658 3.9526C6.09206 4.22547 5.95059 4.36191 5.74215 4.36191C5.68412 4.36314 5.6265 4.35102 5.57298 4.32632C5.51945 4.30163 5.4712 4.2649 5.43131 4.21849C5.3469 4.12307 5.30469 4.01981 5.30469 3.90872C5.30451 3.67925 5.37139 3.44682 5.50531 3.21143C5.63923 2.97623 5.83447 2.78128 6.09102 2.62658C6.34757 2.47188 6.64694 2.39453 6.98913 2.39453ZM6.71735 6.83009C6.7782 6.80577 6.84331 6.79402 6.90879 6.79554V6.79815C6.97317 6.79724 7.03709 6.80929 7.09675 6.83361C7.15641 6.85793 7.21062 6.89401 7.25615 6.93972C7.30168 6.98544 7.33762 7.03985 7.36184 7.09975C7.38606 7.15965 7.39807 7.22382 7.39716 7.28846C7.39716 7.44295 7.34801 7.56364 7.24969 7.65053C7.1568 7.73626 7.03496 7.7834 6.90879 7.78242C6.78028 7.78411 6.65577 7.73764 6.55957 7.65209C6.46004 7.5652 6.41028 7.44356 6.41028 7.28716C6.40878 7.22194 6.42084 7.15712 6.4457 7.09684C6.47055 7.03656 6.50766 6.98215 6.55464 6.93708C6.60116 6.8908 6.6565 6.85441 6.71735 6.83009Z" fill="#E10A0A"></path></svg>