<svg xmlns:xlink="http://www.w3.org/1999/xlink" width="16" height="17" viewBox="0 0 16 17" fill="none" xmlns="http://www.w3.org/2000/svg"><path d="M13 11.0091V14.0091H3V11.0091" stroke="#E10A0A" stroke-width="1.5px" stroke-miterlimit="10" stroke-linecap="round" stroke-linejoin="round" fill="none"></path><path d="M2 5.00909V7.27242C2 8.23191 2.8741 9.00909 3.95324 9.00909H4.04676C5.1259 9.00909 6 8.22871 6 7.27242" stroke="#E10A0A" stroke-width="1.5px" stroke-miterlimit="10" stroke-linecap="round" stroke-linejoin="round" fill="none"></path><path d="M10 7.27277C10 8.23225 9.1259 9.00944 8.04676 9.00944H7.95324C6.8741 9.00944 6 8.22906 6 7.27277" stroke="#E10A0A" stroke-width="1.5px" stroke-miterlimit="10" stroke-linecap="round" stroke-linejoin="round" fill="none"></path><path d="M10 7.27277C10 8.22906 10.8741 9.00944 11.9532 9.00944H12.0468C13.1259 9.00944 14 8.23225 14 7.27277V5.00909" stroke="#E10A0A" stroke-width="1.5px" stroke-miterlimit="10" stroke-linecap="round" stroke-linejoin="round" fill="none"></path><path d="M14 5.00909H2L4.05862 2.00909H11.9414L14 5.00909Z" stroke="#E10A0A" stroke-width="1.5px" stroke-miterlimit="10" stroke-linecap="round" stroke-linejoin="round" fill="none"></path></svg>