<svg xmlns:xlink="http://www.w3.org/1999/xlink" width="25" height="24" viewBox="0 0 25 24" fill="none" xmlns="http://www.w3.org/2000/svg"><path d="M4.36195 15.9368C4.2002 16.3273 4.2002 16.8223 4.2002 17.8125C4.2002 18.8026 4.2002 19.2977 4.36195 19.6882C4.57763 20.2089 4.99156 20.6226 5.51225 20.8382C5.90276 21 6.39783 21 7.38796 21C8.37809 21 8.87291 21 9.26343 20.8382C9.78412 20.6226 10.1977 20.2089 10.4134 19.6882C10.5751 19.2977 10.5751 18.8026 10.5751 17.8125C10.5751 16.8224 10.5751 16.3273 10.4134 15.9368C10.1977 15.4161 9.78412 15.0024 9.26343 14.7867C8.87291 14.625 8.37809 14.625 7.38796 14.625C6.39783 14.625 5.90276 14.625 5.51225 14.7867C4.99156 15.0024 4.57763 15.4161 4.36195 15.9368Z" stroke="#888888" stroke-width="2px" stroke-linecap="round" stroke-linejoin="round" fill="none"></path><path d="M14.987 5.31178C14.8253 5.70229 14.8253 6.19736 14.8253 7.18748C14.8253 8.17761 14.8253 8.67268 14.987 9.0632C15.2027 9.58388 15.6166 9.99758 16.1373 10.2133C16.5278 10.375 17.0229 10.375 18.013 10.375C19.0032 10.375 19.498 10.375 19.8885 10.2133C20.4092 9.99758 20.8228 9.58388 21.0384 9.0632C21.2002 8.67268 21.2002 8.17762 21.2002 7.1875C21.2002 6.19737 21.2002 5.70229 21.0384 5.31178C20.8228 4.7911 20.4092 4.37743 19.8885 4.16176C19.498 4 19.0032 4 18.013 4C17.0229 4 16.5278 4 16.1373 4.16176C15.6166 4.37743 15.2027 4.7911 14.987 5.31178Z" stroke="#888888" stroke-width="2px" stroke-linecap="round" stroke-linejoin="round" fill="none"></path><path d="M4.36195 5.31178C4.2002 5.70229 4.2002 6.19736 4.2002 7.18748C4.2002 8.17761 4.2002 8.67268 4.36195 9.0632C4.57763 9.58388 4.99156 9.99758 5.51225 10.2133C5.90276 10.375 6.39783 10.375 7.38796 10.375C8.37809 10.375 8.87291 10.375 9.26343 10.2133C9.78412 9.99758 10.1977 9.58388 10.4134 9.0632C10.5751 8.67268 10.5751 8.17762 10.5751 7.1875C10.5751 6.19737 10.5751 5.70229 10.4134 5.31178C10.1977 4.7911 9.78412 4.37743 9.26343 4.16176C8.87291 4 8.37809 4 7.38796 4C6.39783 4 5.90276 4 5.51225 4.16176C4.99156 4.37743 4.57763 4.7911 4.36195 5.31178Z" stroke="#888888" stroke-width="2px" stroke-linecap="round" stroke-linejoin="round" fill="none"></path><path d="M14.987 15.9368C14.8253 16.3273 14.8253 16.8223 14.8253 17.8125C14.8253 18.8026 14.8253 19.2977 14.987 19.6882C15.2027 20.2089 15.6166 20.6226 16.1373 20.8382C16.5278 21 17.0229 21 18.013 21C19.0032 21 19.498 21 19.8885 20.8382C20.4092 20.6226 20.8228 20.2089 21.0384 19.6882C21.2002 19.2977 21.2002 18.8026 21.2002 17.8125C21.2002 16.8224 21.2002 16.3273 21.0384 15.9368C20.8228 15.4161 20.4092 15.0024 19.8885 14.7867C19.498 14.625 19.0032 14.625 18.013 14.625C17.0229 14.625 16.5278 14.625 16.1373 14.7867C15.6166 15.0024 15.2027 15.4161 14.987 15.9368Z" stroke="#888888" stroke-width="2px" stroke-linecap="round" stroke-linejoin="round" fill="none"></path></svg>