<svg xmlns:xlink="http://www.w3.org/1999/xlink" width="25" height="24" viewBox="0 0 25 24" fill="none" xmlns="http://www.w3.org/2000/svg"><path d="M17.3994 20C17.3994 19.4477 17.8471 19 18.3994 19C18.9517 19 19.3994 19.4477 19.3994 20C19.3994 20.5523 18.9517 21 18.3994 21C17.8471 21 17.3994 20.5523 17.3994 20Z" stroke="#888888" stroke-width="2px" stroke-linecap="round" stroke-linejoin="round" fill="none"></path><path d="M8.39941 20C8.39941 19.4477 8.84713 19 9.39941 19C9.9517 19 10.3994 19.4477 10.3994 20C10.3994 20.5523 9.9517 21 9.39941 21C8.84713 21 8.39941 20.5523 8.39941 20Z" stroke="#888888" stroke-width="2px" stroke-linecap="round" stroke-linejoin="round" fill="none"></path><path d="M3.39941 3H5.16713C5.6494 3 6.06296 3.3442 6.15051 3.81845L8.39941 16" stroke="#888888" stroke-width="2px" stroke-linecap="round" stroke-linejoin="round" fill="none"></path><path d="M10.3994 6H20.1424C20.7854 6 21.2614 6.59824 21.1168 7.22486L19.2706 15.2249C19.1659 15.6786 18.7619 16 18.2962 16H8.39941" stroke="#888888" stroke-width="2px" stroke-linecap="round" stroke-linejoin="round" fill="none"></path></svg>