<svg xmlns:xlink="http://www.w3.org/1999/xlink" width="18" height="20" viewBox="0 0 1 12" fill="none" xmlns="http://www.w3.org/2000/svg"><path d="M3.57574 7.42426C3.81005 7.65858 4.18995 7.65858 4.42426 7.42426C4.65858 7.18995 4.65858 6.81005 4.42426 6.57574L3.57574 7.42426ZM1 4L0.575736 3.57574C0.341421 3.81005 0.341421 4.18995 0.575736 4.42426L1 4ZM4.42426 1.42426C4.65858 1.18995 4.65858 0.810051 4.42426 0.575736C4.18995 0.341421 3.81005 0.341421 3.57574 0.575736L4.42426 1.42426ZM4.42426 6.57574L1.42426 3.57574L0.575736 4.42426L3.57574 7.42426L4.42426 6.57574ZM1.42426 4.42426L4.42426 1.42426L3.57574 0.575736L0.575736 3.57574L1.42426 4.42426Z" fill="#E10A0A"></path></svg>