<svg xmlns:xlink="http://www.w3.org/1999/xlink" width="24" height="24" viewBox="0 0 24 24" fill="none" xmlns="http://www.w3.org/2000/svg"><path d="M10.7543 3.45879C11.4721 2.84707 12.5279 2.84707 13.2457 3.45879L14.4667 4.49929C14.7743 4.76143 15.1567 4.91985 15.5596 4.952L17.1587 5.07961C18.0988 5.15463 18.8454 5.90117 18.9204 6.8413L19.048 8.4404C19.0802 8.84327 19.2386 9.22573 19.5007 9.53333L20.5412 10.7543C21.1529 11.4721 21.1529 12.5279 20.5412 13.2457L19.5007 14.4667C19.2386 14.7743 19.0802 15.1567 19.048 15.5596L18.9204 17.1587C18.8454 18.0988 18.0988 18.8454 17.1587 18.9204L15.5596 19.048C15.1567 19.0802 14.7743 19.2386 14.4667 19.5007L13.2457 20.5412C12.5279 21.1529 11.4721 21.1529 10.7543 20.5412L9.53333 19.5007C9.22573 19.2386 8.84327 19.0802 8.4404 19.048L6.8413 18.9204C5.90117 18.8454 5.15463 18.0988 5.07961 17.1587L4.952 15.5596C4.91985 15.1567 4.76143 14.7743 4.49929 14.4667L3.45879 13.2457C2.84707 12.5279 2.84707 11.4721 3.45879 10.7543L4.49929 9.53333C4.76143 9.22573 4.91985 8.84327 4.952 8.4404L5.07961 6.8413C5.15463 5.90117 5.90117 5.15463 6.8413 5.07961L8.4404 4.952C8.84327 4.91985 9.22573 4.76143 9.53333 4.49929L10.7543 3.45879Z" stroke="#E10A0A" stroke-width="2px" stroke-linecap="round" stroke-linejoin="round" fill="none"></path><path d="M14.7071 10.7071C15.0976 10.3166 15.0976 9.68342 14.7071 9.29289C14.3166 8.90237 13.6834 8.90237 13.2929 9.29289L14.7071 10.7071ZM9.29289 13.2929C8.90237 13.6834 8.90237 14.3166 9.29289 14.7071C9.68342 15.0976 10.3166 15.0976 10.7071 14.7071L9.29289 13.2929ZM13.2929 9.29289L9.29289 13.2929L10.7071 14.7071L14.7071 10.7071L13.2929 9.29289Z" fill="#E10A0A"></path><path d="M10 10H10.1V10.1H10V10Z" stroke="#E10A0A" stroke-width="2px" stroke-linecap="round" stroke-linejoin="round" fill="none"></path><path d="M14 14H14.1V14.1H14V14Z" stroke="#E10A0A" stroke-width="2px" stroke-linecap="round" stroke-linejoin="round" fill="none"></path></svg>