<svg xmlns:xlink="http://www.w3.org/1999/xlink" width="24" height="24" viewBox="0 0 24 24" fill="none" xmlns="http://www.w3.org/2000/svg"><g clip-path="url(#clip0_2602_35522)" fill="none"><path d="M15.8604 12.05V9.78998L17.5704 10.92L15.8604 12.05Z" stroke="#A4A4A4" stroke-width="2px" stroke-linecap="round" stroke-linejoin="round" fill="none"></path><path d="M5.86035 8.71997H9.00035" stroke="#A4A4A4" stroke-width="2px" stroke-linecap="round" stroke-linejoin="round" fill="none"></path><path d="M5.86035 12.66H7.72035" stroke="#A4A4A4" stroke-width="2px" stroke-linecap="round" stroke-linejoin="round" fill="none"></path><path d="M12 6.89C12 6.12352 12.3045 5.38844 12.8465 4.84646C13.3884 4.30448 14.1235 4 14.89 4H21.42" stroke="#A4A4A4" stroke-width="2px" stroke-linecap="round" stroke-linejoin="round" fill="none"></path><path d="M12.0001 6.89C12.0001 6.12352 11.6956 5.38844 11.1536 4.84646C10.6116 4.30448 9.87655 4 9.11008 4H2.58008" stroke="#A4A4A4" stroke-width="2px" stroke-linecap="round" stroke-linejoin="round" fill="none"></path><path d="M12.0001 6.89C12.0001 6.12352 11.6956 5.38844 11.1536 4.84646C10.6116 4.30448 9.87655 4 9.11008 4H2.58008V17.28H9.11008C9.87655 17.28 10.6116 17.5845 11.1536 18.1265C11.6956 18.6684 12.0001 19.4035 12.0001 20.17C12.0001 19.4035 12.3046 18.6684 12.8465 18.1265C13.3885 17.5845 14.1236 17.28 14.8901 17.28H21.4201V4H14.8901C14.1236 4 13.3885 4.30448 12.8465 4.84646C12.3046 5.38844 12.0001 6.12352 12.0001 6.89Z" stroke="#A4A4A4" stroke-width="2px" stroke-linecap="round" stroke-linejoin="round" fill="none"></path></g><defs><clipPath id="clip0_2602_35522"><rect width="24" height="24" fill="white"></rect></clipPath></defs></svg>