<svg xmlns:xlink="http://www.w3.org/1999/xlink" width="24" height="24" viewBox="0 0 24 24" fill="none" xmlns="http://www.w3.org/2000/svg"><path fill-rule="evenodd" clip-rule="evenodd" d="M13.1072 17.4495C12.5591 18.1831 11.4499 18.1836 10.9008 17.4505C9.5983 15.7106 7.90407 13.4101 7.01424 12.1773C6.32476 11.2223 6 9.96081 6 8.93611C6 5.65788 8.68648 3 12 3C15.3135 3 18 5.65788 18 8.93611C18 9.96081 17.6747 11.2223 16.9858 12.1773C16.0964 13.4096 14.4077 15.7096 13.1072 17.4495Z" stroke="#E10A0A" stroke-width="2px" stroke-miterlimit="10" fill="none"></path><path d="M12 10.5C12.8284 10.5 13.5 9.82843 13.5 9C13.5 8.17157 12.8284 7.5 12 7.5C11.1716 7.5 10.5 8.17157 10.5 9C10.5 9.82843 11.1716 10.5 12 10.5Z" stroke="#E10A0A" stroke-width="2px" stroke-miterlimit="10" fill="none"></path><path d="M9 21H14.7283" stroke="#E10A0A" stroke-width="2px" stroke-miterlimit="10" stroke-linecap="round" stroke-linejoin="round" fill="none"></path></svg>