<svg xmlns:xlink="http://www.w3.org/1999/xlink" width="24" height="24" viewBox="0 0 24 24" fill="none" xmlns="http://www.w3.org/2000/svg"><path fill-rule="evenodd" clip-rule="evenodd" d="M8.71505 4C7.85847 4 7.27617 4.00078 6.82608 4.03755C6.38767 4.07337 6.16347 4.1383 6.00707 4.21799C5.63074 4.40973 5.32478 4.7157 5.13303 5.09202C5.05334 5.24842 4.98842 5.47262 4.9526 5.91104C4.91582 6.36113 4.91505 6.94342 4.91505 7.8V15.2843C4.91505 16.1408 4.91582 16.7231 4.9526 17.1732C4.98842 17.6116 5.05334 17.8358 5.13303 17.9922C5.32478 18.3686 5.63074 18.6745 6.00707 18.8663C6.16347 18.946 6.38767 19.0109 6.82609 19.0467C7.27617 19.0835 7.85847 19.0843 8.71504 19.0843H11.1759C11.9835 19.0843 12.5325 19.0836 12.9576 19.0508C13.3721 19.0188 13.5853 18.9607 13.7342 18.8898C14.1484 18.6925 14.4823 18.3587 14.6796 17.9444C14.7505 17.7956 14.8086 17.5823 14.8405 17.1679C14.8733 16.7427 14.874 16.1937 14.874 15.3861L14.874 14.959C14.874 14.4067 15.3217 13.959 15.874 13.959C16.4263 13.959 16.874 14.4067 16.874 14.959L16.874 15.3861L16.874 15.425V15.425C16.874 16.184 16.874 16.8105 16.8346 17.3217C16.7937 17.8523 16.7059 18.3412 16.4852 18.8045C16.0905 19.6331 15.4229 20.3007 14.5943 20.6954C14.131 20.9161 13.6421 21.0039 13.1115 21.0448C12.6002 21.0843 11.9738 21.0843 11.2148 21.0843H11.1759H8.71504H8.67382C7.86882 21.0843 7.20443 21.0843 6.66322 21.0401C6.10112 20.9941 5.58442 20.8956 5.09909 20.6483C4.34644 20.2648 3.73452 19.6529 3.35102 18.9002C3.10373 18.4149 3.00517 17.8982 2.95924 17.3361C2.91503 16.7949 2.91504 16.1306 2.91505 15.3256V15.3255V15.2843V7.8V7.75873C2.91503 6.95374 2.91502 6.28938 2.95924 5.74818C3.00517 5.18608 3.10373 4.66937 3.35102 4.18404C3.73451 3.43139 4.34644 2.81947 5.09908 2.43597C5.58442 2.18868 6.10112 2.09012 6.66322 2.04419C7.20442 1.99998 7.86878 1.99999 8.67375 2H8.71505H11.1758H11.2147C11.9738 1.99999 12.6002 1.99998 13.1115 2.03942C13.6421 2.08035 14.131 2.16812 14.5944 2.38885C15.4229 2.78355 16.0905 3.45115 16.4852 4.27966C16.7059 4.74298 16.7937 5.2319 16.8346 5.76255C16.874 6.27379 16.874 6.90027 16.874 7.65929V7.6593L16.874 7.6982L16.874 8.12528C16.874 8.67756 16.4263 9.12528 15.874 9.12528C15.3217 9.12528 14.874 8.67756 14.874 8.12528L14.874 7.6982C14.874 6.89056 14.8733 6.34156 14.8405 5.91638C14.8086 5.5019 14.7505 5.28868 14.6796 5.13983C14.4822 4.72557 14.1485 4.39177 13.7342 4.19442C13.5853 4.12351 13.3721 4.06547 12.9576 4.03349C12.5325 4.00069 11.9835 4 11.1758 4H8.71505ZM10.8966 7.41399C11.2871 7.02346 11.9202 7.02346 12.3108 7.41399C12.7013 7.80451 12.7013 8.43768 12.3108 8.8282L10.601 10.5379H21C21.5523 10.5379 22 10.9857 22 11.5379C22 12.0902 21.5523 12.5379 21 12.5379H10.601L12.3108 14.2477C12.7013 14.6382 12.7013 15.2714 12.3108 15.6619C11.9202 16.0524 11.2871 16.0524 10.8966 15.6619L7.4797 12.2451C7.08918 11.8545 7.08918 11.2214 7.4797 10.8308L10.8966 7.41399Z" fill="#E10A0A"></path></svg>