<svg width="174" height="42" viewBox="0 0 174 42" fill="none" xmlns="http://www.w3.org/2000/svg">
<path fill-rule="evenodd" clip-rule="evenodd" d="M153.807 0.807617C164.957 0.807617 174 9.84596 174 21.0009C174 32.1509 164.962 41.1943 153.807 41.1943C142.657 41.1943 133.613 32.1559 133.613 21.0009C133.613 20.8655 133.618 20.7301 133.618 20.5947C149.147 12.3639 169.23 16.3463 151.369 36.3089C159.469 32.3114 165.684 26.6487 167.229 21.4273C169.747 12.8955 162.84 9.72558 153.656 10.5632C146.313 11.2353 139.386 14.0792 133.804 18.2072C135.168 8.37635 143.6 0.807617 153.807 0.807617Z" fill="#E10A0A"/>
<path fill-rule="evenodd" clip-rule="evenodd" d="M37.8139 25.7077V20.2375L37.8041 18.9565V14.4959C37.8041 14.2197 37.6811 13.9685 37.4893 13.7977C37.0811 13.4411 36.1418 13.637 35.6204 13.7425C32.9991 14.2749 33.4073 16.0582 33.4073 20.1822V20.2375V25.552C33.4073 27.3151 33.7073 28.591 34.268 29.3395C34.7696 30.0076 35.5417 30.4295 36.5844 30.6053C37.0073 30.6757 37.2729 30.6606 37.7155 30.6606H55.8682C56.36 30.6606 56.7633 30.2487 56.7633 29.7464V25.8182C56.7633 24.0551 56.4633 22.8244 55.9026 22.0307C55.2141 21.1969 54.0485 20.7548 52.4108 20.7548H47.414C47.3304 20.7548 47.2419 20.7548 47.114 20.7548C46.9861 20.7548 46.8976 20.7548 46.814 20.7548C45.9927 20.7548 45.4763 20.6242 45.1763 20.4484C44.7435 20.1822 44.532 19.6096 44.532 18.7305C44.532 17.6756 44.7927 17.0126 45.3091 16.6609C45.6976 16.4399 46.3861 16.3093 47.4189 16.3093H53.6845C55.2239 16.3093 55.101 16.1988 55.7157 17.334C57.9436 21.433 60.1272 25.557 62.4436 29.6057C63.1223 30.7912 62.965 30.6606 64.5732 30.6606H74.1831C75.8208 30.6606 76.9864 30.2186 77.6749 29.3395C78.2356 28.591 78.4963 27.3151 78.4963 25.552V18.7707C78.4963 16.9674 78.2356 15.7316 77.6749 14.9832C76.9864 14.1041 75.8208 13.6621 74.1831 13.6621H68.9257H68.8568H68.788H68.7191H68.6503H68.5814H68.5126H68.4437H68.3748H68.306H68.2371H68.1683H68.0994H68.0306H67.9617H67.8929H67.824H67.7552H67.6863H67.6175H67.5486H67.4798H67.4109H67.3421H67.2732H67.2043H67.1355H67.0666H66.9978H66.9289H66.8601H66.8109H66.742H66.6732H66.6043H66.5355H66.4666H66.3978H66.3289H66.2601H66.1912H66.1224H66.0535H65.9847H65.9158H65.847H65.7781H65.7092H65.6404H65.5715H65.5027H65.4437C64.9519 13.6621 64.5486 14.074 64.5486 14.5763V14.5864V14.717V14.8476V14.9782V15.1088V15.2394V15.37V15.5006V15.6312V15.7618V15.8924V16.023V16.1536V16.1988V21.1818C64.5486 22.2166 65.5912 22.096 66.2847 22.0307C69.1863 21.7545 68.9011 20.6544 68.9011 18.5798V16.2038H71.2716C72.3044 16.2038 72.9978 16.3344 73.3421 16.6007C73.9028 16.9071 74.1585 17.6153 74.1585 18.625V25.8433C74.1585 26.7676 73.8979 27.3855 73.3421 27.6919C72.9536 27.9129 72.2651 28.0435 71.2716 28.0435L65.4191 28.0335C64.5191 28.0335 64.5683 27.9883 64.1404 27.2046C61.8387 22.9801 59.6502 18.9565 57.3534 14.732C56.8272 13.7676 56.7141 13.6922 55.6124 13.6922C54.9239 13.6922 54.4223 13.6922 53.7288 13.6922C50.655 13.6922 47.5812 13.6922 44.5074 13.6922C42.8254 13.6922 41.6648 14.1745 41.0156 15.0585C40.4549 15.807 40.1549 17.0829 40.1549 18.8862C40.1549 20.6041 40.4549 21.7896 41.0598 22.4075C41.6648 22.9801 42.8254 23.2865 44.5074 23.2865H49.5091C50.714 23.2865 51.5353 23.5076 51.8796 23.9044C52.2239 24.256 52.396 25.0949 52.396 26.3708V27.1293C52.396 27.6316 51.9927 28.0435 51.5009 28.0435H40.1746C39.1418 28.0435 38.3992 27.8376 38.0303 27.1494C37.7647 26.6671 37.8139 26.2502 37.8139 25.7077ZM109.598 30.5752H118.313C119.995 30.5752 121.156 30.1332 121.805 29.2541C122.366 28.5056 122.666 27.2297 122.666 25.4666V18.7757C122.666 16.9724 122.366 15.7367 121.805 14.9882C121.161 14.1092 119.995 13.6671 118.313 13.6671H109.598C109.106 13.6671 108.703 14.079 108.703 14.5813V15.2996C108.703 15.802 109.106 16.2139 109.598 16.2139H115.426C116.459 16.2139 117.152 16.3445 117.536 16.6107C118.052 16.9171 118.313 17.6254 118.313 18.6351V25.768C118.313 26.6923 118.052 27.3101 117.536 27.6165C117.147 27.8376 116.415 27.9682 115.426 27.9682H109.598C109.106 27.9682 108.703 28.3801 108.703 28.8824V29.6459C108.703 30.1583 109.106 30.5702 109.598 30.5752ZM69.1814 36.5578H69.0437C68.5519 36.5578 68.1486 36.1459 68.1486 35.6436V33.1169C68.1486 32.6146 68.5519 32.2027 69.0437 32.2027H71.5175C72.0093 32.2027 72.4126 32.6146 72.4126 33.1169V33.2576C72.4126 35.0609 70.947 36.5578 69.1814 36.5578ZM101.326 27.059V27.074V27.0841C101.311 27.5764 100.913 27.9732 100.431 27.9732H90.3882C89.3062 27.9732 88.239 28.144 87.457 27.6216C86.9406 27.3151 86.6799 26.7425 86.6799 25.8182V14.4959C86.6799 14.2197 86.557 13.9685 86.3652 13.7977C85.957 13.4411 85.0176 13.637 84.4963 13.7425C81.875 14.2749 82.2832 16.0582 82.2832 20.1822V25.4666C82.2832 27.2699 82.5832 28.5056 83.1881 29.2541C83.7045 30.0026 84.6094 30.4848 85.9029 30.5752H86.6357H90.3833H104.788C105.28 30.5752 105.683 30.1633 105.683 29.661V25.773C105.683 24.0099 105.383 22.734 104.823 21.9855C104.134 21.1065 102.969 20.6644 101.287 20.6644H96.3292C96.2407 20.6644 96.1571 20.6644 96.0292 20.6644C95.9013 20.6644 95.7686 20.6644 95.7292 20.6644C94.9079 20.6644 94.3521 20.574 94.0915 20.3982C93.6587 20.0918 93.4472 19.5191 93.4472 18.6351C93.4472 17.6204 93.7079 16.9171 94.2243 16.6107C94.6128 16.3445 95.3013 16.2139 96.3341 16.2139H100.849H103.937C104.429 16.2139 104.833 15.802 104.833 15.2996V14.5813C104.833 14.079 104.429 13.6671 103.937 13.6671H100.849H93.4472C91.7652 13.6671 90.6046 14.1092 89.9554 14.9882C89.3947 15.7367 89.0947 17.0126 89.0947 18.8159C89.0947 20.579 89.3947 21.7645 89.9996 22.3372C90.6046 22.955 91.7652 23.2614 93.4472 23.2614H98.4489C99.6538 23.2614 100.431 23.4372 100.819 23.8341C101.164 24.2309 101.336 25.0246 101.336 26.3005C101.331 26.5416 101.331 26.7877 101.326 27.059Z" fill="#E10A0A"/>
<path fill-rule="evenodd" clip-rule="evenodd" d="M21.0041 6.6245H21.1418C21.6336 6.6245 22.0369 7.0364 22.0369 7.53872V10.0654C22.0369 10.5677 21.6336 10.9796 21.1418 10.9796H18.668C18.1762 10.9796 17.7729 10.5677 17.7729 10.0654V9.92474C17.7729 8.12141 19.2385 6.6245 21.0041 6.6245ZM1.31208 30.6605H6.24H10.0269H12.1171C12.8843 30.6605 13.0958 30.5852 13.4597 29.9271C13.6368 29.6056 13.6515 29.5403 13.7893 29.1988C13.863 29.0129 13.8876 29.5052 13.9024 29.9723C13.922 30.5199 14.0106 30.6354 14.3155 30.6555H14.7925H15.6581H17.7286C17.945 30.6555 18.1172 30.6605 18.2893 30.6555H22.6172H23.3648H24.6877C25.1254 30.6555 25.3959 30.6706 25.8189 30.6002C26.8664 30.4244 27.6386 30.0025 28.1353 29.3344C28.696 28.5859 28.996 27.31 28.996 25.5469V14.963V13.8027V12.5921L28.9861 11.9541V7.48849C28.9861 7.21222 28.8632 6.96106 28.6714 6.79027C28.2632 6.43362 27.3238 6.62952 26.8025 6.73501C24.1812 7.26747 24.5894 8.40774 24.5894 12.5318V12.587V13.7976V14.958V25.7026C24.5894 26.2451 24.6385 26.6621 24.373 27.1644C24.0533 27.7672 23.4484 27.9982 22.6123 28.0485V28.0585H21.7516C21.9336 27.3804 22.032 26.5415 22.032 25.5469V22.6736V22.2768V20.3027L22.0221 19.0218V14.5712C22.0221 14.2949 21.8992 14.0438 21.7074 13.873C21.2992 13.5163 20.3598 13.7122 19.8385 13.8177C17.2172 14.3502 17.6254 16.1334 17.6254 20.2575V20.3127V22.2868V22.6837V25.7076C17.6254 26.2501 17.6745 26.6671 17.409 27.1694C17.0893 27.7722 16.4844 28.0032 15.6483 28.0535V28.0635H14.0942C14.2761 27.3854 14.3745 26.5465 14.3745 25.5519V18.7706C14.3745 16.9673 14.0745 15.7316 13.5138 14.9831C12.8696 14.104 11.704 13.662 10.022 13.662H1.31208C0.820275 13.662 0.416992 14.0739 0.416992 14.5762V15.2945C0.416992 15.7969 0.820275 16.2088 1.31208 16.2088H7.14001C8.1728 16.2088 8.86625 16.3394 9.24986 16.6056C9.76626 16.912 10.0269 17.6203 10.0269 18.63V25.8483C10.0269 26.7726 9.76626 27.3904 9.24986 27.6968C8.86133 27.9179 8.12854 28.0485 7.14001 28.0485H6.24H1.31208C0.820275 28.0485 0.416992 28.4604 0.416992 28.9627V29.7262C0.416992 30.2486 0.820275 30.6605 1.31208 30.6605Z" fill="#E10A0A"/>
</svg>
