<svg xmlns:xlink="http://www.w3.org/1999/xlink" width="16" height="17" viewBox="0 0 16 17" fill="none" xmlns="http://www.w3.org/2000/svg"><path d="M10.251 8.03525V6.71692L11.2485 7.37609L10.251 8.03525Z" stroke="#E10C14" stroke-width="1.5px" stroke-linecap="round" stroke-linejoin="round" fill="none"></path><path d="M4.41797 6.09277H6.24964" stroke="#E10C14" stroke-width="1.5px" stroke-linecap="round" stroke-linejoin="round" fill="none"></path><path d="M4.41797 8.39105H5.50297" stroke="#E10C14" stroke-width="1.5px" stroke-linecap="round" stroke-linejoin="round" fill="none"></path><path d="M8 5.02525C8 4.57814 8.17761 4.14934 8.49377 3.83319C8.80992 3.51703 9.23872 3.33942 9.68583 3.33942H13.495" stroke="#E10C14" stroke-width="1.5px" stroke-linecap="round" stroke-linejoin="round" fill="none"></path><path d="M7.99988 5.02525C7.99988 4.57814 7.82227 4.14934 7.50611 3.83319C7.18996 3.51703 6.76116 3.33942 6.31405 3.33942H2.50488" stroke="#E10C14" stroke-width="1.5px" stroke-linecap="round" stroke-linejoin="round" fill="none"></path><path d="M7.99988 5.02525C7.99988 4.57814 7.82227 4.14934 7.50611 3.83319C7.18996 3.51703 6.76116 3.33942 6.31405 3.33942H2.50488V11.0861H6.31405C6.76116 11.0861 7.18996 11.2637 7.50611 11.5799C7.82227 11.896 7.99988 12.3248 7.99988 12.7719C7.99988 12.3248 8.1775 11.896 8.49365 11.5799C8.80981 11.2637 9.23861 11.0861 9.68572 11.0861H13.4949V3.33942H9.68572C9.23861 3.33942 8.80981 3.51703 8.49365 3.83319C8.1775 4.14934 7.99988 4.57814 7.99988 5.02525Z" stroke="#E10C14" stroke-width="1.5px" stroke-linecap="round" stroke-linejoin="round" fill="none"></path></svg>