<svg xmlns:xlink="http://www.w3.org/1999/xlink" width="18" height="14" viewBox="0 0 18 14" fill="currentColor" xmlns="http://www.w3.org/2000/svg"><path fill-rule="evenodd" clip-rule="evenodd" d="M10.1035 3.5H0.75C0.335786 3.5 0 3.16421 0 2.75C0 2.33579 0.335786 2 0.75 2H10.1035C10.43 0.845748 11.4912 0 12.75 0C14.0088 0 15.07 0.845748 15.3965 2H16.75C17.1642 2 17.5 2.33579 17.5 2.75C17.5 3.16421 17.1642 3.5 16.75 3.5H15.3965C15.07 4.65425 14.0088 5.5 12.75 5.5C11.4912 5.5 10.43 4.65425 10.1035 3.5ZM11.5 2.75C11.5 2.05964 12.0596 1.5 12.75 1.5C13.4404 1.5 14 2.05964 14 2.75C14 3.44036 13.4404 4 12.75 4C12.0596 4 11.5 3.44036 11.5 2.75Z" fill="#505050"></path><path fill-rule="evenodd" clip-rule="evenodd" d="M7.39648 11.5H16.75C17.1642 11.5 17.5 11.1642 17.5 10.75C17.5 10.3358 17.1642 10 16.75 10H7.39648C7.07002 8.84575 6.00878 8 4.75 8C3.49122 8 2.42998 8.84575 2.10352 10H0.75C0.335787 10 0 10.3358 0 10.75C0 11.1642 0.335787 11.5 0.75 11.5H2.10352C2.42998 12.6543 3.49122 13.5 4.75 13.5C6.00878 13.5 7.07002 12.6543 7.39648 11.5ZM3.5 10.75C3.5 10.0596 4.05964 9.5 4.75 9.5C5.44036 9.5 6 10.0596 6 10.75C6 11.4404 5.44036 12 4.75 12C4.05964 12 3.5 11.4404 3.5 10.75Z" fill="#505050"></path></svg>