<svg xmlns:xlink="http://www.w3.org/1999/xlink" width="18" height="14" viewBox="0 0 18 14" fill="none" xmlns="http://www.w3.org/2000/svg"><path d="M1.28033 5.28033C0.987437 5.57322 0.512563 5.57322 0.21967 5.28033C-0.0732233 4.98744 -0.0732233 4.51256 0.21967 4.21967L4.21967 0.21967C4.51256 -0.0732233 4.98744 -0.0732233 5.28033 0.21967L9.28033 4.21967C9.57322 4.51256 9.57322 4.98744 9.28033 5.28033C8.98744 5.57322 8.51256 5.57322 8.21967 5.28033L5.5 2.56066L5.5 12.25C5.5 12.6642 5.16421 13 4.75 13C4.33579 13 4 12.6642 4 12.25L4 2.56066L1.28033 5.28033Z" fill="#505050"></path><path d="M13.5 10.9393L16.2197 8.21967C16.5126 7.92678 16.9874 7.92678 17.2803 8.21967C17.5732 8.51256 17.5732 8.98744 17.2803 9.28033L13.2803 13.2803C12.9874 13.5732 12.5126 13.5732 12.2197 13.2803L8.21967 9.28033C7.92678 8.98744 7.92678 8.51256 8.21967 8.21967C8.51256 7.92678 8.98744 7.92678 9.28033 8.21967L12 10.9393L12 1.25C12 0.835787 12.3358 0.5 12.75 0.5C13.1642 0.5 13.5 0.835787 13.5 1.25L13.5 10.9393Z" fill="#505050"></path></svg>