<svg xmlns:xlink="http://www.w3.org/1999/xlink" width="24" height="24" viewBox="0 0 24 24" fill="none" xmlns="http://www.w3.org/2000/svg"><path d="M4 16C3.44772 16 3 16.4477 3 17C3 17.5523 3.44772 18 4 18V16ZM10 18C10.5523 18 11 17.5523 11 17C11 16.4477 10.5523 16 10 16V18ZM4 11C3.44772 11 3 11.4477 3 12C3 12.5523 3.44772 13 4 13V11ZM13 13C13.5523 13 14 12.5523 14 12C14 11.4477 13.5523 11 13 11V13ZM19 11C19 10.4477 18.5523 10 18 10C17.4477 10 17 10.4477 17 11H19ZM18 19L17.2929 19.7071C17.6834 20.0976 18.3166 20.0976 18.7071 19.7071L18 19ZM21.7071 16.7071C22.0976 16.3166 22.0976 15.6834 21.7071 15.2929C21.3166 14.9024 20.6834 14.9024 20.2929 15.2929L21.7071 16.7071ZM15.7071 15.2929C15.3166 14.9024 14.6834 14.9024 14.2929 15.2929C13.9024 15.6834 13.9024 16.3166 14.2929 16.7071L15.7071 15.2929ZM4 6C3.44772 6 3 6.44772 3 7C3 7.55228 3.44772 8 4 8V6ZM16 8C16.5523 8 17 7.55228 17 7C17 6.44772 16.5523 6 16 6V8ZM4 18H10V16H4V18ZM4 13H13V11H4V13ZM17 11V19H19V11H17ZM20.2929 15.2929L17.2929 18.2929L18.7071 19.7071L21.7071 16.7071L20.2929 15.2929ZM18.7071 18.2929L15.7071 15.2929L14.2929 16.7071L17.2929 19.7071L18.7071 18.2929ZM4 8H16V6H4V8Z" fill="#888888"></path></svg>