<svg xmlns:xlink="http://www.w3.org/1999/xlink" width="18" height="18" viewBox="0 0 20 18" fill="none" xmlns="http://www.w3.org/2000/svg"><path d="M12.5 0.5H4.99998C4.30831 0.5 3.71665 0.916666 3.46665 1.51667L0.94998 7.39167C0.87498 7.58333 0.833313 7.78333 0.833313 8V9.66667C0.833313 10.5833 1.58331 11.3333 2.49998 11.3333H7.75831L6.96665 15.1417L6.94165 15.4083C6.94165 15.75 7.08331 16.0667 7.30831 16.2917L8.19165 17.1667L13.6833 11.675C13.9833 11.375 14.1666 10.9583 14.1666 10.5V2.16667C14.1666 1.25 13.4166 0.5 12.5 0.5ZM12.5 10.5L8.88331 14.1167L9.99998 9.66667H2.49998V8L4.99998 2.16667H12.5V10.5ZM15.8333 0.5H19.1666V10.5H15.8333V0.5Z" fill="#A4A4A4"></path></svg>