<svg xmlns:xlink="http://www.w3.org/1999/xlink" width="20" height="20" viewBox="0 0 20 18" fill="none" xmlns="http://www.w3.org/2000/svg"><path d="M7.50004 17.4987H15C15.6917 17.4987 16.2834 17.082 16.5334 16.482L19.05 10.607C19.125 10.4154 19.1667 10.2154 19.1667 9.9987V8.33203C19.1667 7.41536 18.4167 6.66536 17.5 6.66536H12.2417L13.0334 2.85703L13.0584 2.59036C13.0584 2.2487 12.9167 1.93203 12.6917 1.70703L11.8084 0.832031L6.31671 6.3237C6.01671 6.6237 5.83337 7.04036 5.83337 7.4987V15.832C5.83337 16.7487 6.58337 17.4987 7.50004 17.4987ZM7.50004 7.4987L11.1167 3.88203L10 8.33203H17.5V9.9987L15 15.832H7.50004V7.4987ZM0.833374 7.4987H4.16671V17.4987H0.833374V7.4987Z" fill="#A4A4A4"></path></svg>