<svg width="16" height="18" viewBox="0 0 16 18" fill="none" xmlns="http://www.w3.org/2000/svg">
<path d="M13 12.3993C12.3667 12.3993 11.8 12.6493 11.3667 13.041L5.425 9.58268C5.46667 9.39102 5.5 9.19935 5.5 8.99935C5.5 8.79935 5.46667 8.60768 5.425 8.41602L11.3 4.99102C11.75 5.40768 12.3417 5.66602 13 5.66602C14.3833 5.66602 15.5 4.54935 15.5 3.16602C15.5 1.78268 14.3833 0.666016 13 0.666016C11.6167 0.666016 10.5 1.78268 10.5 3.16602C10.5 3.36602 10.5333 3.55768 10.575 3.74935L4.7 7.17435C4.25 6.75768 3.65833 6.49935 3 6.49935C1.61667 6.49935 0.5 7.61602 0.5 8.99935C0.5 10.3827 1.61667 11.4993 3 11.4993C3.65833 11.4993 4.25 11.241 4.7 10.8243L10.6333 14.291C10.5917 14.466 10.5667 14.6493 10.5667 14.8327C10.5667 16.1743 11.6583 17.266 13 17.266C14.3417 17.266 15.4333 16.1743 15.4333 14.8327C15.4333 13.491 14.3417 12.3993 13 12.3993Z" fill="white"/>
</svg>
