<svg xmlns:xlink="http://www.w3.org/1999/xlink" width="25" height="25" viewBox="0 0 28 28" fill="none" xmlns="http://www.w3.org/2000/svg"><path d="M13.9997 18.6654C16.577 18.6654 18.6663 16.576 18.6663 13.9987C18.6663 11.4214 16.577 9.33203 13.9997 9.33203C11.4223 9.33203 9.33301 11.4214 9.33301 13.9987C9.33301 16.576 11.4223 18.6654 13.9997 18.6654Z" stroke="#E10A0A" stroke-width="2px" stroke-linecap="round" stroke-linejoin="round" fill="none"></path><path d="M18.6664 9.33521V15.1685C18.6664 16.0968 19.0351 16.987 19.6915 17.6434C20.3479 18.2998 21.2381 18.6685 22.1664 18.6685C23.0946 18.6685 23.9849 18.2998 24.6412 17.6434C25.2976 16.987 25.6664 16.0968 25.6664 15.1685V14.0019C25.6662 11.3687 24.7753 8.8131 23.1385 6.7505C21.5017 4.6879 19.2153 3.23964 16.6511 2.64123C14.0869 2.04281 11.3956 2.32943 9.01493 3.45448C6.63424 4.57952 4.70415 6.47683 3.53849 8.83789C2.37282 11.199 2.04015 13.8849 2.59455 16.459C3.14895 19.0331 4.55782 21.344 6.59209 23.0159C8.62635 24.6877 11.1664 25.6223 13.7991 25.6676C16.4318 25.7128 19.0025 24.8662 21.093 23.2652" stroke="#E10A0A" stroke-width="2px" stroke-linecap="round" stroke-linejoin="round" fill="none"></path></svg>