<svg xmlns:xlink="http://www.w3.org/1999/xlink" xmlns="http://www.w3.org/2000/svg" width="25" height="25" viewBox="0 0 24 24" version="1.1"><g id="surface1"><path fill="#888888" d="M 7.359375 2.367188 C 7.21875 2.40625 6.921875 2.527344 6.703125 2.632812 C 6.164062 2.898438 5.625 3.425781 5.375 3.9375 C 5.234375 4.21875 4.929688 5.230469 4.71875 6.097656 C 4.695312 6.1875 4.871094 6.039062 5.359375 5.554688 C 6.324219 4.589844 7.242188 3.976562 8.429688 3.492188 C 8.957031 3.277344 9.992188 2.984375 10.445312 2.925781 C 10.578125 2.90625 10.683594 2.882812 10.667969 2.875 C 10.660156 2.863281 10.21875 2.738281 9.695312 2.59375 C 8.839844 2.363281 8.679688 2.335938 8.179688 2.316406 C 7.777344 2.300781 7.542969 2.316406 7.359375 2.367188 Z M 7.359375 2.367188 "></path><path fill="#888888" d="M 11.195312 3.613281 C 10.21875 3.707031 9.257812 3.980469 8.34375 4.410156 C 5.765625 5.640625 4.007812 8 3.585938 10.808594 C 3.496094 11.410156 3.496094 12.636719 3.585938 13.238281 C 4.007812 16.046875 5.765625 18.40625 8.34375 19.636719 C 11.085938 20.9375 14.277344 20.703125 16.804688 19.007812 C 18.707031 17.734375 19.953125 15.839844 20.421875 13.523438 C 20.546875 12.917969 20.546875 11.128906 20.421875 10.523438 C 19.953125 8.207031 18.707031 6.3125 16.804688 5.039062 C 15.148438 3.929688 13.164062 3.425781 11.195312 3.613281 Z M 10.085938 5.910156 C 11.40625 6.183594 12.261719 7.546875 11.929688 8.835938 C 11.460938 10.636719 9.195312 11.25 7.878906 9.933594 C 6.933594 8.984375 6.9375 7.539062 7.894531 6.582031 C 8.5 5.980469 9.277344 5.742188 10.085938 5.910156 Z M 16.28125 7.101562 C 17.367188 7.382812 18.09375 8.300781 18.09375 9.394531 C 18.09375 10.101562 17.890625 10.609375 17.414062 11.085938 C 17.085938 11.414062 16.6875 11.640625 16.261719 11.742188 C 15.671875 11.878906 15.171875 11.816406 14.597656 11.53125 C 13.660156 11.070312 13.121094 9.992188 13.328125 8.996094 C 13.433594 8.46875 13.613281 8.136719 13.992188 7.753906 C 14.484375 7.261719 14.992188 7.046875 15.679688 7.035156 C 15.863281 7.03125 16.132812 7.0625 16.28125 7.101562 Z M 12.453125 11.152344 C 12.8125 11.335938 13.03125 11.675781 13.03125 12.050781 C 13.03125 12.863281 12.242188 13.359375 11.507812 13.011719 C 11.230469 12.886719 11.148438 12.796875 11.019531 12.515625 C 10.609375 11.609375 11.574219 10.695312 12.453125 11.152344 Z M 8.816406 12.28125 C 8.957031 12.304688 9.242188 12.414062 9.449219 12.515625 C 10.386719 12.976562 10.925781 14.054688 10.71875 15.050781 C 10.613281 15.578125 10.433594 15.910156 10.054688 16.292969 C 9.285156 17.066406 8.210938 17.234375 7.226562 16.738281 C 5.96875 16.101562 5.550781 14.445312 6.355469 13.273438 C 6.894531 12.5 7.867188 12.109375 8.816406 12.28125 Z M 15.066406 13.480469 C 16.296875 13.800781 17.082031 15.042969 16.824219 16.273438 C 16.6875 16.917969 16.128906 17.648438 15.5625 17.921875 C 14.59375 18.390625 13.492188 18.214844 12.765625 17.488281 C 11.8125 16.542969 11.808594 15.050781 12.75 14.109375 C 13.351562 13.515625 14.246094 13.269531 15.066406 13.480469 Z M 15.066406 13.480469 "></path><path fill="#888888" d="M 17.671875 4.726562 C 17.671875 4.742188 17.765625 4.828125 17.882812 4.914062 C 18.417969 5.316406 19.238281 6.21875 19.734375 6.964844 C 20.414062 7.972656 20.949219 9.320312 21.140625 10.539062 C 21.171875 10.726562 21.207031 10.871094 21.21875 10.859375 C 21.230469 10.847656 21.375 10.328125 21.542969 9.699219 C 21.804688 8.695312 21.84375 8.503906 21.84375 8.132812 C 21.84375 7.304688 21.539062 6.578125 20.953125 5.996094 C 20.480469 5.53125 20.058594 5.320312 19.054688 5.0625 C 18.640625 4.953125 18.164062 4.828125 17.992188 4.78125 C 17.8125 4.734375 17.671875 4.707031 17.671875 4.726562 Z M 17.671875 4.726562 "></path><path fill="#888888" d="M 2.71875 13.515625 C 2.71875 13.53125 2.601562 13.984375 2.460938 14.515625 C 2.242188 15.355469 2.203125 15.546875 2.203125 15.914062 C 2.203125 16.742188 2.507812 17.46875 3.089844 18.046875 C 3.589844 18.539062 3.929688 18.703125 5.164062 19.03125 C 5.714844 19.175781 6.171875 19.289062 6.183594 19.285156 C 6.191406 19.273438 6.140625 19.21875 6.066406 19.164062 C 5.804688 18.960938 4.953125 18.113281 4.671875 17.765625 C 3.816406 16.710938 3.148438 15.3125 2.859375 13.988281 C 2.773438 13.589844 2.71875 13.40625 2.71875 13.515625 Z M 2.71875 13.515625 "></path><path fill="#888888" d="M 19.195312 17.816406 C 19.09375 17.953125 18.816406 18.257812 18.582031 18.496094 C 17.304688 19.777344 15.632812 20.6875 13.875 21.046875 C 13.609375 21.097656 13.378906 21.15625 13.367188 21.164062 C 13.351562 21.183594 13.34375 21.183594 14.4375 21.472656 C 15.875 21.859375 16.457031 21.847656 17.335938 21.417969 C 17.980469 21.097656 18.558594 20.484375 18.792969 19.847656 C 18.914062 19.53125 19.414062 17.671875 19.398438 17.617188 C 19.386719 17.59375 19.296875 17.6875 19.195312 17.816406 Z M 19.195312 17.816406 "></path></g></svg>