<svg width="174" height="41" viewBox="0 0 174 41" fill="none" xmlns="http://www.w3.org/2000/svg">
<path fill-rule="evenodd" clip-rule="evenodd" d="M153.39 0.175781C164.54 0.175781 173.583 9.21412 173.583 20.3691C173.583 31.5191 164.545 40.5624 153.39 40.5624C142.24 40.5624 133.196 31.5241 133.196 20.3691C133.196 20.2337 133.201 20.0983 133.201 19.9628C148.73 11.732 168.813 15.7145 150.952 35.6771C159.052 31.6796 165.267 26.0168 166.812 20.7954C169.33 12.2637 162.423 9.09375 153.239 9.93137C145.896 10.6035 138.969 13.4474 133.387 17.5753C134.751 7.74451 143.183 0.175781 153.39 0.175781Z" fill="#E10A0A"/>
<path fill-rule="evenodd" clip-rule="evenodd" d="M37.3964 25.0756V19.6054L37.3866 18.3245V13.8639C37.3866 13.5876 37.2636 13.3364 37.0718 13.1656C36.6636 12.809 35.7243 13.0049 35.203 13.1104C32.5816 13.6428 32.9898 15.4261 32.9898 19.5501V19.6054V24.9199C32.9898 26.6831 33.2898 27.959 33.8505 28.7074C34.3521 29.3755 35.1243 29.7974 36.1669 29.9733C36.5899 30.0436 36.8554 30.0285 37.2981 30.0285H55.4507C55.9425 30.0285 56.3458 29.6166 56.3458 29.1143V25.1862C56.3458 23.423 56.0458 22.1923 55.4851 21.3987C54.7966 20.5648 53.631 20.1228 51.9933 20.1228H46.9965C46.9129 20.1228 46.8244 20.1228 46.6965 20.1228C46.5686 20.1228 46.4801 20.1228 46.3965 20.1228C45.5752 20.1228 45.0588 19.9922 44.7588 19.8163C44.326 19.5501 44.1145 18.9775 44.1145 18.0984C44.1145 17.0435 44.3752 16.3805 44.8916 16.0289C45.2801 15.8078 45.9686 15.6772 47.0014 15.6772H53.2671C54.8064 15.6772 54.6835 15.5667 55.2982 16.702C57.5261 20.8009 59.7097 24.9249 62.0262 28.9736C62.7049 30.1591 62.5475 30.0285 64.1557 30.0285H73.7656C75.4033 30.0285 76.5689 29.5865 77.2575 28.7074C77.8181 27.959 78.0788 26.6831 78.0788 24.9199V18.1386C78.0788 16.3353 77.8181 15.0996 77.2575 14.3511C76.5689 13.472 75.4033 13.03 73.7656 13.03H68.5082H68.4393H68.3705H68.3016H68.2328H68.1639H68.0951H68.0262H67.9574H67.8885H67.8197H67.7508H67.682H67.6131H67.5442H67.4754H67.4065H67.3377H67.2688H67.2H67.1311H67.0623H66.9934H66.9246H66.8557H66.7869H66.718H66.6492H66.5803H66.5115H66.4426H66.3934H66.3246H66.2557H66.1869H66.118H66.0492H65.9803H65.9114H65.8426H65.7737H65.7049H65.636H65.5672H65.4983H65.4295H65.3606H65.2918H65.2229H65.1541H65.0852H65.0262C64.5344 13.03 64.1311 13.4419 64.1311 13.9442V13.9543V14.0849V14.2155V14.3461V14.4767V14.6073V14.7379V14.8685V14.9991V15.1297V15.2603V15.3909V15.5215V15.5667V20.5497C64.1311 21.5845 65.1737 21.464 65.8672 21.3987C68.7688 21.1224 68.4836 20.0223 68.4836 17.9477V15.5717H70.8541C71.8869 15.5717 72.5804 15.7023 72.9246 15.9686C73.4853 16.275 73.741 16.9833 73.741 17.9929V25.2113C73.741 26.1355 73.4804 26.7534 72.9246 27.0598C72.5361 27.2808 71.8476 27.4114 70.8541 27.4114L65.0016 27.4014C64.1016 27.4014 64.1508 27.3562 63.7229 26.5726C61.4212 22.348 59.2327 18.3245 56.9359 14.0999C56.4097 13.1355 56.2966 13.0601 55.195 13.0601C54.5064 13.0601 54.0048 13.0601 53.3113 13.0601C50.2375 13.0601 47.1637 13.0601 44.0899 13.0601C42.4079 13.0601 41.2473 13.5424 40.5981 14.4265C40.0374 15.1749 39.7374 16.4508 39.7374 18.2541C39.7374 19.9721 40.0374 21.1575 40.6424 21.7754C41.2473 22.348 42.4079 22.6545 44.0899 22.6545H49.0916C50.2965 22.6545 51.1179 22.8755 51.4621 23.2723C51.8064 23.6239 51.9785 24.4628 51.9785 25.7387V26.4972C51.9785 26.9995 51.5752 27.4114 51.0834 27.4114H39.7571C38.7243 27.4114 37.9817 27.2055 37.6128 26.5173C37.3472 26.0351 37.3964 25.6181 37.3964 25.0756ZM109.181 29.9431H117.896C119.578 29.9431 120.738 29.5011 121.387 28.622C121.948 27.8736 122.248 26.5977 122.248 24.8345V18.1436C122.248 16.3403 121.948 15.1046 121.387 14.3561C120.743 13.4771 119.578 13.035 117.896 13.035H109.181C108.689 13.035 108.286 13.4469 108.286 13.9493V14.6676C108.286 15.1699 108.689 15.5818 109.181 15.5818H115.009C116.041 15.5818 116.735 15.7124 117.118 15.9786C117.635 16.285 117.896 16.9933 117.896 18.003V25.1359C117.896 26.0602 117.635 26.678 117.118 26.9845C116.73 27.2055 115.997 27.3361 115.009 27.3361H109.181C108.689 27.3361 108.286 27.748 108.286 28.2503V29.0138C108.286 29.5262 108.689 29.9381 109.181 29.9431ZM68.7639 35.9258H68.6262C68.1344 35.9258 67.7311 35.5138 67.7311 35.0115V32.4849C67.7311 31.9825 68.1344 31.5706 68.6262 31.5706H71.1C71.5918 31.5706 71.9951 31.9825 71.9951 32.4849V32.6255C71.9951 34.4288 70.5295 35.9258 68.7639 35.9258ZM100.909 26.4269V26.4419V26.452C100.894 26.9443 100.495 27.3411 100.013 27.3411H89.9707C88.8887 27.3411 87.8215 27.5119 87.0395 26.9895C86.5231 26.6831 86.2625 26.1104 86.2625 25.1862V13.8639C86.2625 13.5876 86.1395 13.3364 85.9477 13.1656C85.5395 12.809 84.6002 13.0049 84.0788 13.1104C81.4575 13.6428 81.8657 15.4261 81.8657 19.5501V24.8345C81.8657 26.6379 82.1657 27.8736 82.7706 28.622C83.287 29.3705 84.192 29.8527 85.4854 29.9431H86.2182H89.9658H104.371C104.863 29.9431 105.266 29.5312 105.266 29.0289V25.1409C105.266 23.3778 104.966 22.1019 104.405 21.3534C103.717 20.4744 102.551 20.0323 100.869 20.0323H95.9117C95.8232 20.0323 95.7396 20.0323 95.6117 20.0323C95.4839 20.0323 95.3511 20.0323 95.3117 20.0323C94.4904 20.0323 93.9347 19.9419 93.674 19.7661C93.2412 19.4597 93.0297 18.8871 93.0297 18.003C93.0297 16.9883 93.2904 16.285 93.8068 15.9786C94.1953 15.7124 94.8839 15.5818 95.9167 15.5818H100.431H103.52C104.012 15.5818 104.415 15.1699 104.415 14.6676V13.9493C104.415 13.4469 104.012 13.035 103.52 13.035H100.431H93.0297C91.3478 13.035 90.1871 13.4771 89.5379 14.3561C88.9772 15.1046 88.6772 16.3805 88.6772 18.1838C88.6772 19.947 88.9772 21.1324 89.5822 21.7051C90.1871 22.3229 91.3478 22.6293 93.0297 22.6293H98.0314C99.2364 22.6293 100.013 22.8052 100.402 23.202C100.746 23.5988 100.918 24.3925 100.918 25.6684C100.913 25.9095 100.913 26.1556 100.909 26.4269Z" fill="#828282"/>
<path fill-rule="evenodd" clip-rule="evenodd" d="M20.5871 5.99205H20.7248C21.2166 5.99205 21.6199 6.40396 21.6199 6.90628V9.43295C21.6199 9.93527 21.2166 10.3472 20.7248 10.3472H18.251C17.7592 10.3472 17.3559 9.93527 17.3559 9.43295V9.2923C17.3559 7.48897 18.8215 5.99205 20.5871 5.99205ZM0.895091 30.0281H5.82301H9.60993H11.7001C12.4673 30.0281 12.6788 29.9527 13.0427 29.2947C13.2198 28.9732 13.2346 28.9079 13.3723 28.5663C13.446 28.3805 13.4706 28.8727 13.4854 29.3399C13.505 29.8874 13.5936 30.003 13.8985 30.023H14.3755H15.2411H17.3116C17.528 30.023 17.7002 30.0281 17.8723 30.023H22.2002H22.9478H24.2707C24.7084 30.023 24.9789 30.0381 25.4019 29.9678C26.4494 29.792 27.2216 29.37 27.7183 28.7019C28.279 27.9535 28.579 26.6776 28.579 24.9145V14.3306V13.1702V11.9596L28.5691 11.3217V6.85605C28.5691 6.57977 28.4462 6.32861 28.2544 6.15782C27.8462 5.80117 26.9068 5.99708 26.3855 6.10257C23.7642 6.63502 24.1724 7.77529 24.1724 11.8993V11.9546V13.1652V14.3255V25.0702C24.1724 25.6127 24.2215 26.0296 23.956 26.5319C23.6363 27.1347 23.0314 27.3658 22.1953 27.416V27.4261H21.3346C21.5166 26.7479 21.615 25.909 21.615 24.9145V22.0412V21.6444V19.6702L21.6051 18.3893V13.9388C21.6051 13.6625 21.4822 13.4113 21.2904 13.2405C20.8822 12.8839 19.9428 13.0798 19.4215 13.1853C16.8002 13.7177 17.2084 15.501 17.2084 19.625V19.6803V21.6544V22.0512V25.0752C17.2084 25.6177 17.2575 26.0346 16.992 26.5369C16.6723 27.1397 16.0674 27.3708 15.2313 27.421V27.4311H13.6772C13.8591 26.7529 13.9575 25.9141 13.9575 24.9195V18.1382C13.9575 16.3348 13.6575 15.0991 13.0968 14.3507C12.4526 13.4716 11.287 13.0296 9.60501 13.0296H0.895091C0.403283 13.0296 0 13.4415 0 13.9438V14.6621C0 15.1644 0.403283 15.5763 0.895091 15.5763H6.72302C7.75581 15.5763 8.44926 15.7069 8.83287 15.9732C9.34927 16.2796 9.60993 16.9878 9.60993 17.9975V25.2158C9.60993 26.1401 9.34927 26.758 8.83287 27.0644C8.44434 27.2854 7.71155 27.416 6.72302 27.416H5.82301H0.895091C0.403283 27.416 0 27.8279 0 28.3302V29.0938C0 29.6162 0.403283 30.0281 0.895091 30.0281Z" fill="#828282"/>
</svg>
