<svg xmlns:xlink="http://www.w3.org/1999/xlink" width="25" height="25" viewBox="0 0 31 33" fill="none" xmlns="http://www.w3.org/2000/svg"><path d="M3.81738 12.2475C3.81738 6.54254 8.86556 1.91504 15.0891 1.91504" stroke="#E10A0A" stroke-width="2px" stroke-miterlimit="10" fill="none"></path><path d="M5.69656 22.1614C5.69656 22.9107 5.14633 23.5188 4.46838 23.5188H4.27678C3.34828 23.5188 1 21.0755 1 19.8973V15.8686C1 14.6958 3.34828 12.2471 4.27678 12.2471H4.46838C5.14633 12.2471 5.69656 12.8552 5.69656 13.6045V22.1614V22.1614Z" stroke="#E10A0A" stroke-width="2px" stroke-miterlimit="10" fill="none"></path><path d="M25.4223 12.2475C25.4223 6.54254 20.7948 1.91504 15.0898 1.91504" stroke="#E10A0A" stroke-width="2px" stroke-miterlimit="10" fill="none"></path><path d="M24.4824 22.5801C23.4116 25.6833 20.9696 28.126 17.9072 29.1553" stroke="#E10A0A" stroke-width="2px" stroke-miterlimit="10" fill="none"></path><path d="M16.0267 31.0336H13.2145C12.1726 31.0336 11.333 30.1903 11.333 29.155C11.333 28.1147 12.1777 27.2764 13.2145 27.2764H16.0267C17.0686 27.2764 17.9082 28.1197 17.9082 29.155C17.9082 30.1903 17.0635 31.0336 16.0267 31.0336Z" stroke="#E10A0A" stroke-width="2px" stroke-miterlimit="10" fill="none"></path><path d="M23.543 22.1614C23.543 22.9107 24.2032 23.5188 25.0168 23.5188H25.2467C26.3609 23.5188 29.1788 21.0755 29.1788 19.8973V15.8686C29.1788 14.6958 26.3609 12.2471 25.2467 12.2471H25.0168C24.2032 12.2471 23.543 12.8552 23.543 13.6045V22.1614Z" stroke="#E10A0A" stroke-width="2px" stroke-miterlimit="10" fill="none"></path></svg>