<svg xmlns:xlink="http://www.w3.org/1999/xlink" width="25" height="25" viewBox="0 0 24 24" fill="none" xmlns="http://www.w3.org/2000/svg"><g clip-path="url(#clip0_691_8483)" fill="none"><path d="M12.1641 2.13232C15.3246 2.13232 15.6991 2.14434 16.9465 2.20167C18.1005 2.25438 18.7275 2.44671 19.1445 2.60946C19.6965 2.82398 20.0914 3.08105 20.5056 3.4953C20.9199 3.90956 21.176 4.30348 21.3906 4.85644C21.5524 5.27347 21.7456 5.90041 21.7984 7.05441C21.8557 8.30273 21.8677 8.67723 21.8677 11.8369C21.8677 14.9965 21.8557 15.3719 21.7984 16.6193C21.7456 17.7733 21.5533 18.4003 21.3906 18.8173C21.176 19.3693 20.919 19.7642 20.5056 20.1784C20.0914 20.5927 19.6975 20.8488 19.1445 21.0634C18.7275 21.2252 18.1005 21.4184 16.9465 21.4712C15.6982 21.5285 15.3246 21.5405 12.1641 21.5405C9.00351 21.5405 8.62901 21.5285 7.38161 21.4712C6.22761 21.4184 5.60067 21.2261 5.18364 21.0634C4.6316 20.8488 4.23676 20.5918 3.8225 20.1784C3.40825 19.7642 3.15211 19.3703 2.93758 18.8173C2.77576 18.4003 2.5825 17.7733 2.5298 16.6193C2.47247 15.371 2.46045 14.9965 2.46045 11.8369C2.46045 8.67723 2.47247 8.30181 2.5298 7.05441C2.5825 5.90041 2.77484 5.27347 2.93758 4.85644C3.15211 4.3044 3.40917 3.90956 3.8225 3.4953C4.23584 3.08105 4.63068 2.82491 5.18364 2.60946C5.60067 2.44764 6.22761 2.25438 7.38161 2.20167C8.62901 2.14434 9.00351 2.13232 12.1641 2.13232ZM12.1641 0C8.94987 0 8.54671 0.0138703 7.28452 0.0712006C6.02418 0.128531 5.16422 0.329187 4.4106 0.621387C3.63202 0.923759 2.9718 1.32877 2.31435 1.98622C1.6569 2.64367 1.25188 3.30482 0.949512 4.0834C0.657312 4.83609 0.456656 5.69605 0.399326 6.95639C0.341995 8.21859 0.328125 8.62175 0.328125 11.8359C0.328125 15.0501 0.341995 15.4533 0.399326 16.7155C0.456656 17.9749 0.657312 18.8358 0.949512 19.5885C1.25188 20.3671 1.6569 21.0273 2.31435 21.6848C2.97272 22.3431 3.63202 22.7472 4.4106 23.0496C5.1633 23.3418 6.02418 23.5424 7.28359 23.5998C8.54671 23.658 8.94987 23.6719 12.1641 23.6719C15.3783 23.6719 15.7814 23.658 17.0436 23.6007C18.303 23.5434 19.1639 23.3427 19.9166 23.0505C20.6952 22.7481 21.3554 22.3431 22.0129 21.6857C22.6713 21.0273 23.0753 20.368 23.3777 19.5894C23.6699 18.8367 23.8706 17.9758 23.9279 16.7164C23.9852 15.4542 23.9991 15.0511 23.9991 11.8369C23.9991 8.62267 23.9852 8.21951 23.9279 6.95732C23.8706 5.6979 23.6699 4.83702 23.3777 4.08433C23.0753 3.30574 22.6703 2.64552 22.0129 1.98807C21.3554 1.33062 20.6952 0.923759 19.9166 0.621387C19.1639 0.329187 18.303 0.128531 17.0436 0.0712006C15.7814 0.0138703 15.3783 0 12.1641 0ZM12.1641 5.758C8.80747 5.758 6.08613 8.47935 6.08613 11.8359C6.08613 15.1925 8.80747 17.9139 12.1641 17.9139C15.5207 17.9139 18.242 15.1925 18.242 11.8359C18.242 8.47935 15.5207 5.758 12.1641 5.758ZM12.1641 15.7816C9.98552 15.7816 8.21845 14.0154 8.21845 11.8359C8.21845 9.65647 9.9846 7.89032 12.1641 7.89032C14.3436 7.89032 16.1097 9.65647 16.1097 11.8359C16.1097 14.0154 14.3426 15.7816 12.1641 15.7816ZM19.9028 5.51759C19.9028 6.30172 19.2666 6.9379 18.4824 6.9379C17.6983 6.9379 17.0621 6.30172 17.0621 5.51759C17.0621 4.73345 17.6983 4.09727 18.4824 4.09727C19.2666 4.09727 19.9028 4.73345 19.9028 5.51759Z" fill="#888888"></path></g><defs><clipPath id="clip0_691_8483"><rect width="23.6719" height="23.6719" fill="white" transform="translate(0.328125)"></rect></clipPath></defs></svg>