<svg xmlns:xlink="http://www.w3.org/1999/xlink" width="25" height="25" viewBox="0 0 24 24" fill="none" xmlns="http://www.w3.org/2000/svg"><path d="M0 1.69573C0 0.759694 0.776688 0 1.73424 0H21.73C22.6879 0 23.4642 0.759694 23.4642 1.69573V21.9765C23.4642 22.9128 22.6879 23.6719 21.73 23.6719H1.73424C0.776688 23.6719 0 22.9128 0 21.9768V1.69542V1.69573Z" fill="#888888"></path><path d="M7.09335 19.7258V9.07772H3.53231V19.7258H7.09366H7.09335ZM5.31345 7.62417C6.55502 7.62417 7.32797 6.80647 7.32797 5.78465C7.30463 4.73964 6.55502 3.94482 5.33709 3.94482C4.11824 3.94482 3.32227 4.73964 3.32227 5.78465C3.32227 6.80647 4.0949 7.62417 5.29011 7.62417H5.31314H5.31345ZM9.0643 19.7258H12.625V13.7801C12.625 13.4622 12.6484 13.1437 12.7423 12.9167C12.9997 12.2805 13.5856 11.6221 14.5695 11.6221C15.8578 11.6221 16.3734 12.5984 16.3734 14.03V19.7258H19.9341V13.6205C19.9341 10.35 18.1776 8.82815 15.8348 8.82815C13.9139 8.82815 13.0703 9.89512 12.6017 10.6219H12.6253V9.07803H9.06461C9.11098 10.077 9.0643 19.7261 9.0643 19.7261V19.7258Z" fill="#FFFFFF"></path></svg>