<svg xmlns:xlink="http://www.w3.org/1999/xlink" width="20" height="20" viewBox="0 0 20 20" fill="none" xmlns="http://www.w3.org/2000/svg"><g id="Group" fill="none"><path id="Vector" d="M10 20C15.5228 20 20 15.5228 20 10C20 4.47716 15.5228 0 10 0C4.47716 0 0 4.47716 0 10C0 15.5228 4.47716 20 10 20Z" fill="#888888"></path><path id="Vector_2" d="M4.28626 9.78092C4.28626 9.78092 9.23975 7.67354 10.9577 6.93148C11.6163 6.63468 13.8496 5.68484 13.8496 5.68484C13.8496 5.68484 14.8804 5.26932 14.7945 6.27848C14.7659 6.69404 14.5368 8.14842 14.3078 9.72156C13.9642 11.9477 13.5919 14.3816 13.5919 14.3816C13.5919 14.3816 13.5347 15.0643 13.0479 15.183C12.5612 15.3017 11.7594 14.7675 11.6163 14.6487C11.5017 14.5597 9.46881 13.224 8.72435 12.571C8.52392 12.3929 8.29487 12.0368 8.75297 11.6212C9.78377 10.6417 11.015 9.42476 11.7594 8.65304C12.103 8.29684 12.4466 7.46576 11.015 8.47492C8.98205 9.92934 6.97775 11.2947 6.97775 11.2947C6.97775 11.2947 6.51961 11.5915 5.66064 11.3244C4.80162 11.0573 3.79947 10.7011 3.79947 10.7011C3.79947 10.7011 3.11232 10.2558 4.28626 9.78092Z" fill="#FFFFFF"></path></g></svg>