<svg xmlns:xlink="http://www.w3.org/1999/xlink" width="24" height="24" viewBox="0 0 24 24" fill="none" xmlns="http://www.w3.org/2000/svg"><path d="M19.7778 18.7143C19.7778 19.9767 18.7829 21 17.5556 21C16.3283 21 15.3333 19.9767 15.3333 18.7143M19.7778 18.7143C19.7778 17.4519 18.7829 16.4286 17.5556 16.4286C16.3283 16.4286 15.3333 17.4519 15.3333 18.7143M19.7778 18.7143H21.4444M15.3333 18.7143H14.2222M8.66667 18.7143C8.66667 19.9767 7.67174 21 6.44444 21C5.21715 21 4.22222 19.9767 4.22222 18.7143M8.66667 18.7143C8.66667 17.4519 7.67174 16.4286 6.44444 16.4286C5.21715 16.4286 4.22222 17.4519 4.22222 18.7143M8.66667 18.7143H14.2222M4.22222 18.7143C2.99492 18.7143 2 17.6909 2 16.4286V8.65714C2 7.37702 2 6.73696 2.24221 6.24802C2.45526 5.81794 2.79522 5.46827 3.21335 5.24913C3.68871 5 4.31099 5 5.55556 5H10.6667C11.9112 5 12.5335 5 13.0089 5.24913C13.427 5.46827 13.767 5.81794 13.98 6.24802C14.2222 6.73696 14.2222 7.37702 14.2222 8.65714V18.7143M14.2222 18.7143V7.28571H18.6667L22 11.8571M22 11.8571V18.7143M22 11.8571H14.2222" stroke="#E10A0A" stroke-width="2px" stroke-linecap="round" stroke-linejoin="round" fill="none"></path></svg>